{"title":"Pimp 2010 BRRip XviD Feel-Free","uid":5987148,"size":1278303421,"categoryP":"video","categoryS":"movies","magnet":"?xt=urn:btih:db5ce60daf10a3a8376b22b96b6e719447d94bcb&amp;dn=Pimp+2010+BRRip+XviD+Feel-Free&amp;tr=udp%3A%2F%2Ftracker.openbittorrent.com%3A80&amp;tr=udp%3A%2F%2Fopen.demonii.com%3A1337&amp;tr=udp%3A%2F%2Ftracker.coppersurfer.tk%3A6969&amp;tr=udp%3A%2F%2Fexodus.desync.com%3A6969","seeders":0,"leechers":1,"uploader":"deffjam555","files":9,"time":1290770828,"description":"Genre:Thriller\nLanguage:English\nIMDb:http://www.imdb.com/title/tt1460643/\nSource:720p BluRay x264-DNL\n\nGeneral\nComplete name :Pimp 2010 BRRip XviD Feel-Free\nFormat : MPEG-4\nFormat profile : Base Media / Version 2\nCodec ID : mp42\nFile size : 1.19 GiB\nDuration : 1h 27mn\nOverall bit rate : 1 942 Kbps\nVideo #1\nID : 1\nFormat : MPEG-4 Visual\nFormat profile : AdvancedSimple@L5\nFormat settings, BVOP : No\nFormat settings, QPel : No\nFormat settings, GMC : No warppoints\nFormat settings, Matrix : Default (H.263)\nCodec ID : 20\nDuration : 1h 27mn\nBit rate mode : Constant\nBit rate : 1 460 Kbps\nNominal bit rate : 64.0 Kbps\nWidth : 720 pixels\nHeight : 304 pixels\nDisplay aspect ratio : 2.35:1\nFrame rate mode : Constant\nFrame rate : 23.976 fps\nResolution : 24 bits\nColorimetry : 4:2:0\nScan type : Progressive\nBits/(Pixel*Frame) : 0.278\nStream size : 916 MiB (75%)\nAudio #2\nID : 2\nFormat : AAC\nFormat/Info : Advanced Audio Codec\nFormat version : Version 4\nFormat profile : LC\nFormat settings, SBR : No\nCodec ID : 40\nDuration : 1h 27mn\nBit rate mode : Constant\nBit rate : 477 Kbps\nNominal bit rate : 480 Kbps\nChannel(s) : 6 channels\nChannel positions : Front: L C R, Rear: L R, LFE\nSampling rate : 48.0 KHz\nResolution : 16 bits\nStream size : 299 MiB (25%)\nPlot:\nA week in the life of Woody; a Soho pimp, as seen through the eyes of concealed documentary cameras: A week which spirals brutally out of control.\n\nscreens\n &lt;a href=&quot;\nhttp://rapidhdd.com/images/479730vlcsnap-2010-11-26-12h08m37s184.png&quot; rel=&quot;nofollow&quot; target=&quot;_NEW&quot;&gt;\nhttp://rapidhdd.com/images/479730vlcsnap-2010-11-26-12h08m37s184.png&lt;/a&gt; &lt;a href=&quot;\nhttp://www.rapidhdd.com/images/135128vlcsnap-2010-11-26-12h09m16s69.png&quot; rel=&quot;nofollow&quot; target=&quot;_NEW&quot;&gt;\nhttp://www.rapidhdd.com/images/135128vlcsnap-2010-11-26-12h09m16s69.png&lt;/a&gt; &lt;a href=&quot;\nhttp://www.rapidhdd.com/images/979756vlcsnap-2010-11-26-12h09m12s25.png&quot; rel=&quot;nofollow&quot; target=&quot;_NEW&quot;&gt;\nhttp://www.rapidhdd.com/images/979756vlcsnap-2010-11-26-12h09m12s25.png&lt;/a&gt; &lt;a href=&quot;\nhttp://www.rapidhdd.com/images/371815vlcsnap-2010-11-26-12h09m33s231.png&quot; rel=&quot;nofollow&quot; target=&quot;_NEW&quot;&gt;\nhttp://www.rapidhdd.com/images/371815vlcsnap-2010-11-26-12h09m33s231.png&lt;/a&gt; &lt;a href=&quot;\nhttp://www.rapidhdd.com/images/347633vlcsnap-2010-11-26-12h10m25s255.png&quot; rel=&quot;nofollow&quot; target=&quot;_NEW&quot;&gt;\nhttp://www.rapidhdd.com/images/347633vlcsnap-2010-11-26-12h10m25s255.png&lt;/a&gt; &lt;a href=&quot;\nhttp://www.rapidhdd.com/images/747152vlcsnap-2010-11-26-12h07m31s42.png&quot; rel=&quot;nofollow&quot; target=&quot;_NEW&quot;&gt;\nhttp://www.rapidhdd.com/images/747152vlcsnap-2010-11-26-12h07m31s42.png&lt;/a&gt;","torrent":{"xt":"urn:btih:db5ce60daf10a3a8376b22b96b6e719447d94bcb","amp;dn":"Pimp+2010+BRRip+XviD+Feel-Free","amp;tr":["udp%3A%2F%2Ftracker.openbittorrent.com%3A80","udp%3A%2F%2Fopen.demonii.com%3A1337","udp%3A%2F%2Ftracker.coppersurfer.tk%3A6969","udp%3A%2F%2Fexodus.desync.com%3A6969"],"infoHash":"db5ce60daf10a3a8376b22b96b6e719447d94bcb","infoHashBuffer":{"type":"Buffer","data":[219,92,230,13,175,16,163,168,55,107,34,185,107,110,113,148,71,217,75,203]},"announce":[],"urlList":[]}}